# xmcd
#
# Track frame offsets:
#	150
#	10059
#	26405
#	30618
#	40848
#	45624
#	63466
#	69009
#	73403
#	84050
#	105329
#	118302
#	129940
#	143303
#	157936
#	181406
#	194649
#	219280
#	231825
#	242107
#	258946
#
# Disc length: 3852 seconds
#
# Revision: 1
# Processed by: cddbd v1.5.2PL0 Copyright (c) Steve Scherf et al.
# Submitted via: EZCDAudioConverter 7.0.6.1
#
DISCID=100f0a15
DTITLE=The Residents - 80 Aching Orphans 4/4
DYEAR=2017
DGENRE=
TTITLE0=Loser ≅ Weed
TTITLE1=Blue Tongues
TTITLE2=Boots
TTITLE3=Susie Smiles
TTITLE4=Perfect Love
TTITLE5=Hit The Road Jack [Remix]
TTITLE6=Bach Is Dead
TTITLE7=96 Tears
TTITLE8=Ship's A'Going Down [Extract]
TTITLE9=The Black Behind
TTITLE10=I Hate Heaven
TTITLE11=Semper Fidelis
TTITLE12=Don't Be Cruel
TTITLE13=Matchmaker
TTITLE14=Would We Be Alive?
TTITLE15=Daydream Believer
TTITLE16=Shroud Of Flames
TTITLE17=Catatonia
TTITLE18=Pollex Christi (Part 4)
TTITLE19=Hunters Concentrate
TTITLE20=Mr. Wonderful [Live In Oslo]
EXTD=
EXTT0=
EXTT1=
EXTT2=
EXTT3=
EXTT4=
EXTT5=
EXTT6=
EXTT7=
EXTT8=
EXTT9=
EXTT10=
EXTT11=
EXTT12=
EXTT13=
EXTT14=
EXTT15=
EXTT16=
EXTT17=
EXTT18=
EXTT19=
EXTT20=
PLAYORDER=
